# xmcd
#
# Track frame offsets:
#	150
#	17597
#	27154
#	35805
#	48770
#	60223
#	67832
#	79420
#	88972
#	106925
#	114532
#	125559
#	134386
#	146114
#	157110
#	162153
#
# Disc length: 2364 seconds
#
# Revision: 1
# Processed by: cddbd v1.5.2PL0 Copyright (c) Steve Scherf et al.
# Submitted via: audiograbber 1.83.01
#
DISCID=d7093a10
DTITLE=die Jeetzelstaker - Weihnachten in Hitzacker
DYEAR=1900
DGENRE=Shanty
TTITLE0=Prolog Karl Guhl
TTITLE1=Weihnachtsabend im Hafen
TTITLE2=Weiße Weihnacht
TTITLE3=Süßer die Glocken nie klingen
TTITLE4=Weihnacht auf hoher See
TTITLE5=Leise rieselt der Schnee
TTITLE6=Sankt Niklas
TTITLE7=Oh du Fröhliche
TTITLE8=Weit hinterm Meer Fred Staron
TTITLE9=Es ist für uns eine Zeit angekommen
TTITLE10=Auf Weihnachtshafenwache
TTITLE11=Kling Glöckchen
TTITLE12=Noch drei Meilen bis Weihnachten
TTITLE13=Weihnachten bin ich zu Haus
TTITLE14=Alle Jahre wieder
TTITLE15=Stille Nacht
EXTD=
EXTT0=
EXTT1=
EXTT2=
EXTT3=
EXTT4=
EXTT5=
EXTT6=
EXTT7=
EXTT8=
EXTT9=
EXTT10=
EXTT11=
EXTT12=
EXTT13=
EXTT14=
EXTT15=
PLAYORDER=
